<?xml version="1.0" encoding="UTF-8" standalone="no"?>
<!DOCTYPE svg PUBLIC "-//W3C//DTD SVG 1.1//EN" "http://www.w3.org/Graphics/SVG/1.1/DTD/svg11.dtd">
<!-- Created with Vectornator (http://vectornator.io/) -->
<svg height="100%" stroke-miterlimit="10" style="fill-rule:nonzero;clip-rule:evenodd;stroke-linecap:round;stroke-linejoin:round;" version="1.1" viewBox="0 0 414.38 144.965" width="100%" xml:space="preserve" xmlns="http://www.w3.org/2000/svg" xmlns:vectornator="http://vectornator.io" xmlns:xlink="http://www.w3.org/1999/xlink">
<defs/>
<g id="Sin-tÃ­tulo" vectornator:layerName="Sin tÃ­tulo">
<g opacity="1">
<path d="M26 45L12 125C11.3333 130.333 13.6667 133.333 19 134L137 134C142.333 133.333 144.667 130.333 144 125L130 45L26 45Z" fill="#1a6fbd" fill-rule="nonzero" opacity="1" stroke="#b5d4f4" stroke-linecap="butt" stroke-linejoin="miter" stroke-width="1.8" vectornator:layerName="path"/>
<path d="M44 46L39 132" fill="#000000" fill-rule="nonzero" opacity="0.28" stroke="#b5d4f4" stroke-linecap="butt" stroke-linejoin="miter" stroke-width="0.8" vectornator:layerName="path"/>
<path d="M112 46L117 132" fill="#000000" fill-rule="nonzero" opacity="0.28" stroke="#b5d4f4" stroke-linecap="butt" stroke-linejoin="miter" stroke-width="0.8" vectornator:layerName="path"/>
<path d="M28 39L128 39C129.657 39 131 40.3431 131 42L131 46C131 47.6569 129.657 49 128 49L28 49C26.3431 49 25 47.6569 25 46L25 42C25 40.3431 26.3431 39 28 39Z" fill="#1e7fd8" fill-rule="nonzero" opacity="1" stroke="#b5d4f4" stroke-linecap="butt" stroke-linejoin="miter" stroke-width="1.2" vectornator:layerName="rect"/>
<path d="M42 39C42 27 46.6667 19 56 15C70.6667 10.3333 85.3333 10.3333 100 15C109.333 19 114 27 114 39" fill="none" opacity="1" stroke="#b5d4f4" stroke-linecap="round" stroke-linejoin="miter" stroke-width="5" vectornator:layerName="path"/>
<path d="M42 39C42 27 46.6667 19 56 15C70.6667 10.3333 85.3333 10.3333 100 15C109.333 19 114 27 114 39" fill="none" opacity="0.45" stroke="#185fa5" stroke-linecap="round" stroke-linejoin="miter" stroke-width="2.2" vectornator:layerName="path"/>
<path d="M99 67C99 59.268 105.268 53 113 53C120.732 53 127 59.268 127 67C127 74.732 120.732 81 113 81C105.268 81 99 74.732 99 67Z" fill="#ef9f27" fill-rule="nonzero" opacity="0.18" stroke="none" vectornator:layerName="circle"/>
<path d="M104 67C104 62.0294 108.029 58 113 58C117.971 58 122 62.0294 122 67C122 71.9706 117.971 76 113 76C108.029 76 104 71.9706 104 67Z" fill="#ef9f27" fill-rule="nonzero" opacity="0.45" stroke="none" vectornator:layerName="circle"/>
<path d="M107.5 67C107.5 63.9624 109.962 61.5 113 61.5C116.038 61.5 118.5 63.9624 118.5 67C118.5 70.0376 116.038 72.5 113 72.5C109.962 72.5 107.5 70.0376 107.5 67Z" fill="#fac775" fill-rule="nonzero" opacity="0.85" stroke="none" vectornator:layerName="circle"/>
<g opacity="1" vectornator:layerName="path">
<clipPath id="ClipPath">
<path d="M26 45L12 125C11.3333 130.333 13.6667 133.333 19 134L137 134C142.333 133.333 144.667 130.333 144 125L130 45L26 45Z"/>
</clipPath>
<g clip-path="url(#ClipPath)">
<path d="M11 115L146 115L146 115L146 135L146 135L11 135L11 135L11 115L11 115Z" fill="#0f6e56" fill-rule="nonzero" opacity="0.55" stroke="none" vectornator:layerName="rect"/>
<path d="M12 117C23.3333 115 34.6667 115 46 117C57.3333 119 68.6667 119 80 117C91.3333 115 102.667 115 114 117C125.333 119 135.667 119 145 117" fill="none" opacity="0.28" stroke="#ffffff" stroke-linecap="round" stroke-linejoin="miter" stroke-width="0.8" vectornator:layerName="path"/>
</g>
</g>
<g opacity="1" vectornator:layerName="path">
<clipPath id="ClipPath_2">
<path d="M26 45L12 125C11.3333 130.333 13.6667 133.333 19 134L137 134C142.333 133.333 144.667 130.333 144 125L130 45L26 45Z"/>
</clipPath>
<g clip-path="url(#ClipPath_2)">
<path d="M26 124C26 120.134 49.2812 117 78 117C106.719 117 130 120.134 130 124C130 127.866 106.719 131 78 131C49.2812 131 26 127.866 26 124Z" fill="#c97f10" fill-rule="nonzero" opacity="0.22" stroke="none" vectornator:layerName="ellipse"/>
<path d="M37 116C48.3333 106 58.6667 100 68 98C74.6667 96 81.3333 96 88 98C97.3333 100 107.667 106 119 116C109 120 95.3333 122.333 78 123C60.6667 122.333 47 120 37 116Z" fill="#ef9f27" fill-rule="nonzero" opacity="1" stroke="none" vectornator:layerName="path"/>
<path d="M40 116C52.6667 119.333 65.3333 121.333 78 122C90.6667 121.333 103.333 119.333 116 116" fill="none" opacity="0.5" stroke="#fac775" stroke-linecap="round" stroke-linejoin="miter" stroke-width="1" vectornator:layerName="path"/>
</g>
</g>
<g opacity="1" vectornator:layerName="path">
<clipPath id="ClipPath_3">
<path d="M26 45L12 125C11.3333 130.333 13.6667 133.333 19 134L137 134C142.333 133.333 144.667 130.333 144 125L130 45L26 45Z"/>
</clipPath>
<g clip-path="url(#ClipPath_3)">
<path d="M53.3882 90.9622C53.3882 89.0166 55.0205 87.4393 57.0339 87.4393C59.0474 87.4393 60.6796 89.0166 60.6796 90.9622C60.6796 92.9079 59.0474 94.4852 57.0339 94.4852C55.0205 94.4852 53.3882 92.9079 53.3882 90.9622Z" fill="#ef9f27" fill-rule="nonzero" opacity="1" stroke="none" vectornator:layerName="ellipse"/>
<path d="M56.1326 93.5931L57.5909 93.5931C57.9936 93.5931 58.32 93.8798 58.32 94.2336L58.32 94.8741C58.32 95.2279 57.9936 95.5146 57.5909 95.5146L56.1326 95.5146C55.7299 95.5146 55.4035 95.2279 55.4035 94.8741L55.4035 94.2336C55.4035 93.8798 55.7299 93.5931 56.1326 93.5931Z" fill="#ef9f27" fill-rule="nonzero" opacity="1" stroke="none" vectornator:layerName="rect"/>
<path d="M54.6744 94.5146L59.0492 94.5146C60.2573 94.5146 61.2366 95.375 61.2366 96.4362L61.2366 104.123C61.2366 105.184 60.2573 106.044 59.0492 106.044L54.6744 106.044C53.4663 106.044 52.4869 105.184 52.4869 104.123L52.4869 96.4362C52.4869 95.375 53.4663 94.5146 54.6744 94.5146Z" fill="#ef9f27" fill-rule="nonzero" opacity="1" stroke="none" vectornator:layerName="rect"/>
<path d="M62.8584 89.7099C62.8584 87.7642 64.4906 86.187 66.5041 86.187C68.5175 86.187 70.1498 87.7642 70.1498 89.7099C70.1498 91.6555 68.5175 93.2328 66.5041 93.2328C64.4906 93.2328 62.8584 91.6555 62.8584 89.7099Z" fill="#d63080" fill-rule="nonzero" opacity="1" stroke="none" vectornator:layerName="ellipse"/>
<path d="M65.6114 91.0309L67.0697 91.0309C67.4724 91.0309 67.7988 91.3177 67.7988 91.6715L67.7988 92.312C67.7988 92.6657 67.4724 92.9525 67.0697 92.9525L65.6114 92.9525C65.2087 92.9525 64.8823 92.6657 64.8823 92.312L64.8823 91.6715C64.8823 91.3177 65.2087 91.0309 65.6114 91.0309Z" fill="#d63080" fill-rule="nonzero" opacity="1" stroke="none" vectornator:layerName="rect"/>
<path d="M64.1531 92.9525L68.528 92.9525C69.736 92.9525 70.7154 93.8128 70.7154 94.8741L70.7154 103.201C70.7154 104.262 69.736 105.123 68.528 105.123L64.1531 105.123C62.9451 105.123 61.9657 104.262 61.9657 103.201L61.9657 94.8741C61.9657 93.8128 62.9451 92.9525 64.1531 92.9525Z" fill="#d63080" fill-rule="nonzero" opacity="1" stroke="none" vectornator:layerName="rect"/>
<path d="M72.9952 88.1232C72.9952 86.0007 74.7907 84.28 77.0055 84.28C79.2203 84.28 81.0158 86.0007 81.0158 88.1232C81.0158 90.2458 79.2203 91.9664 77.0055 91.9664C74.7907 91.9664 72.9952 90.2458 72.9952 88.1232Z" fill="#f5c9a0" fill-rule="nonzero" opacity="1" stroke="none" vectornator:layerName="ellipse"/>
<path d="M75.8193 89.1093L77.2776 89.1093C77.6803 89.1093 78.0068 89.3961 78.0068 89.7499L78.0068 90.3904C78.0068 90.7441 77.6803 91.0309 77.2776 91.0309L75.8193 91.0309C75.4167 91.0309 75.0902 90.7441 75.0902 90.3904L75.0902 89.7499C75.0902 89.3961 75.4167 89.1093 75.8193 89.1093Z" fill="#f5c9a0" fill-rule="nonzero" opacity="1" stroke="none" vectornator:layerName="rect"/>
<path d="M74.3611 92.0309L79.465 92.0309C80.6731 92.0309 81.6524 92.8913 81.6524 93.9525L81.6524 102.92C81.6524 103.981 80.6731 104.842 79.465 104.842L74.3611 104.842C73.153 104.842 72.1737 103.981 72.1737 102.92L72.1737 93.9525C72.1737 92.8913 73.153 92.0309 74.3611 92.0309Z" fill="#ffffff" fill-rule="nonzero" opacity="1" stroke="none" vectornator:layerName="rect"/>
<path d="M84.0907 88.5186C84.0907 86.396 85.8862 84.6754 88.101 84.6754C90.3158 84.6754 92.1112 86.396 92.1112 88.5186C92.1112 90.6411 90.3158 92.3617 88.101 92.3617C85.8862 92.3617 84.0907 90.6411 84.0907 88.5186Z" fill="#8b4513" fill-rule="nonzero" opacity="1" stroke="none" vectornator:layerName="ellipse"/>
<path d="M86.7564 90.3904L88.2147 90.3904C88.6174 90.3904 88.9438 90.6772 88.9438 91.0309L88.9438 91.6715C88.9438 92.0252 88.6174 92.312 88.2147 92.312L86.7564 92.312C86.3537 92.312 86.0273 92.0252 86.0273 91.6715L86.0273 91.0309C86.0273 90.6772 86.3537 90.3904 86.7564 90.3904Z" fill="#8b4513" fill-rule="nonzero" opacity="1" stroke="none" vectornator:layerName="rect"/>
<path d="M85.2981 92.312L90.4021 92.312C91.6102 92.312 92.5895 93.1723 92.5895 94.2336L92.5895 103.201C92.5895 104.262 91.6102 105.123 90.4021 105.123L85.2981 105.123C84.0901 105.123 83.1107 104.262 83.1107 103.201L83.1107 94.2336C83.1107 93.1723 84.0901 92.312 85.2981 92.312Z" fill="#4a90c8" fill-rule="nonzero" opacity="1" stroke="none" vectornator:layerName="rect"/>
<path d="M94.4427 90.3018C94.4427 88.3562 96.0749 86.7789 98.0884 86.7789C100.102 86.7789 101.734 88.3562 101.734 90.3018C101.734 92.2475 100.102 93.8247 98.0884 93.8247C96.0749 93.8247 94.4427 92.2475 94.4427 90.3018Z" fill="#c97040" fill-rule="nonzero" opacity="1" stroke="none" vectornator:layerName="ellipse"/>
<path d="M96.9643 92.312L98.4226 92.312C98.8253 92.312 99.1518 92.5988 99.1518 92.9525L99.1518 93.5931C99.1518 93.9468 98.8253 94.2336 98.4226 94.2336L96.9643 94.2336C96.5616 94.2336 96.2352 93.9468 96.2352 93.5931L96.2352 92.9525C96.2352 92.5988 96.5616 92.312 96.9643 92.312Z" fill="#c97040" fill-rule="nonzero" opacity="1" stroke="none" vectornator:layerName="rect"/>
<path d="M95.5061 94.2336L99.8809 94.2336C101.089 94.2336 102.068 95.0939 102.068 96.1552L102.068 103.842C102.068 104.903 101.089 105.763 99.8809 105.763L95.5061 105.763C94.298 105.763 93.3186 104.903 93.3186 103.842L93.3186 96.1552C93.3186 95.0939 94.298 94.2336 95.5061 94.2336Z" fill="#9fe1cb" fill-rule="nonzero" opacity="1" stroke="none" vectornator:layerName="rect"/>
<path d="M60.5075 95.7957C62.9379 94.0876 64.8823 93.6606 66.3406 94.5146" fill="none" opacity="1" stroke="#ef9f27" stroke-linecap="round" stroke-linejoin="miter" stroke-width="2.5" vectornator:layerName="path"/>
<path d="M64.8823 94.5146C64.8823 93.8071 65.5352 93.2336 66.3406 93.2336C67.1459 93.2336 67.7988 93.8071 67.7988 94.5146C67.7988 95.2222 67.1459 95.7957 66.3406 95.7957C65.5352 95.7957 64.8823 95.2222 64.8823 94.5146Z" fill="#ef9f27" fill-rule="nonzero" opacity="1" stroke="none" vectornator:layerName="circle"/>
<path d="M69.9862 94.8741C72.4167 93.166 74.3611 92.739 75.8193 93.5931" fill="none" opacity="1" stroke="#d63080" stroke-linecap="round" stroke-linejoin="miter" stroke-width="2.5" vectornator:layerName="path"/>
<path d="M74.3611 93.5931C74.3611 92.8855 75.014 92.312 75.8193 92.312C76.6247 92.312 77.2776 92.8855 77.2776 93.5931C77.2776 94.3006 76.6247 94.8741 75.8193 94.8741C75.014 94.8741 74.3611 94.3006 74.3611 93.5931Z" fill="#d63080" fill-rule="nonzero" opacity="1" stroke="none" vectornator:layerName="circle"/>
<path d="M80.9233 93.312C83.3538 92.4579 85.2981 92.4579 86.7564 93.312" fill="none" opacity="1" stroke="#ffffff" stroke-linecap="round" stroke-linejoin="miter" stroke-width="2.5" vectornator:layerName="path"/>
<path d="M85.2981 93.312C85.2981 92.6045 85.951 92.0309 86.7564 92.0309C87.5618 92.0309 88.2147 92.6045 88.2147 93.312C88.2147 94.0195 87.5618 94.5931 86.7564 94.5931C85.951 94.5931 85.2981 94.0195 85.2981 93.312Z" fill="#ffffff" fill-rule="nonzero" opacity="1" stroke="none" vectornator:layerName="circle"/>
<path d="M91.8604 94.2336C94.2908 92.9525 96.2352 92.739 97.6935 93.5931" fill="none" opacity="1" stroke="#4a90c8" stroke-linecap="round" stroke-linejoin="miter" stroke-width="2.5" vectornator:layerName="path"/>
<path d="M96.2352 93.5931C96.2352 92.8855 96.8881 92.312 97.6935 92.312C98.4989 92.312 99.1518 92.8855 99.1518 93.5931C99.1518 94.3006 98.4989 94.8741 97.6935 94.8741C96.8881 94.8741 96.2352 94.3006 96.2352 93.5931Z" fill="#4a90c8" fill-rule="nonzero" opacity="1" stroke="none" vectornator:layerName="circle"/>
</g>
</g>
</g>
<g opacity="1">
<g fill="#ffffff" opacity="1" stroke="none" vectornator:layerName="text">
<path d="M160.597 50.874L166.441 50.874L175.096 76.3447L183.688 50.874L189.472 50.874L189.472 81L185.596 81L185.596 63.2197C185.596 62.6045 185.609 61.5859 185.637 60.1641C185.664 58.7422 185.678 57.2178 185.678 55.5908L177.085 81L173.045 81L164.391 55.5908L164.391 56.5137C164.391 57.252 164.408 58.3765 164.442 59.8872C164.476 61.3979 164.493 62.5088 164.493 63.2197L164.493 81L160.597 81L160.597 50.874Z"/>
<path d="M204.34 58.5439C205.898 58.5439 207.409 58.9097 208.872 59.6411C210.335 60.3726 211.449 61.3193 212.215 62.4814C212.953 63.5889 213.445 64.8809 213.691 66.3574C213.91 67.3691 214.02 68.9824 214.02 71.1973L197.921 71.1973C197.989 73.4258 198.516 75.2134 199.5 76.5601C200.484 77.9067 202.009 78.5801 204.073 78.5801C206.001 78.5801 207.539 77.9443 208.688 76.6729C209.344 75.9346 209.809 75.0801 210.082 74.1094L213.712 74.1094C213.616 74.916 213.298 75.8149 212.758 76.8062C212.218 77.7974 211.613 78.6074 210.943 79.2363C209.822 80.3301 208.435 81.0684 206.78 81.4512C205.892 81.6699 204.887 81.7793 203.766 81.7793C201.031 81.7793 198.714 80.7847 196.813 78.7954C194.913 76.8062 193.963 74.0205 193.963 70.4385C193.963 66.9111 194.92 64.0469 196.834 61.8457C198.748 59.6445 201.25 58.5439 204.34 58.5439ZM210.226 68.2646C210.075 66.665 209.727 65.3867 209.18 64.4297C208.168 62.6523 206.479 61.7637 204.114 61.7637C202.419 61.7637 200.997 62.3755 199.849 63.5991C198.7 64.8228 198.092 66.3779 198.023 68.2646L210.226 68.2646Z"/>
<path d="M218.654 59.0361L222.161 59.0361L222.161 62.8301C222.448 62.0918 223.152 61.1929 224.273 60.1333C225.395 59.0737 226.687 58.5439 228.149 58.5439C228.218 58.5439 228.334 58.5508 228.498 58.5645C228.662 58.5781 228.942 58.6055 229.339 58.6465L229.339 62.543C229.12 62.502 228.918 62.4746 228.734 62.4609C228.549 62.4473 228.348 62.4404 228.129 62.4404C226.27 62.4404 224.841 63.0386 223.843 64.2349C222.845 65.4312 222.346 66.8086 222.346 68.3672L222.346 81L218.654 81L218.654 59.0361Z"/>
<path d="M241.008 58.4004C243.482 58.4004 245.496 59.002 247.047 60.2051C248.599 61.4082 249.532 63.4795 249.847 66.4189L246.258 66.4189C246.039 65.0654 245.54 63.9409 244.761 63.0454C243.981 62.1499 242.73 61.7021 241.008 61.7021C238.656 61.7021 236.975 62.8506 235.963 65.1475C235.307 66.6377 234.979 68.4766 234.979 70.6641C234.979 72.8652 235.443 74.7178 236.373 76.2217C237.303 77.7256 238.766 78.4775 240.762 78.4775C242.293 78.4775 243.506 78.0093 244.402 77.0728C245.297 76.1362 245.916 74.8545 246.258 73.2275L249.847 73.2275C249.437 76.1396 248.411 78.269 246.771 79.6157C245.13 80.9624 243.031 81.6357 240.475 81.6357C237.604 81.6357 235.313 80.5864 233.604 78.4878C231.896 76.3892 231.041 73.7676 231.041 70.623C231.041 66.7676 231.978 63.7666 233.851 61.6201C235.724 59.4736 238.109 58.4004 241.008 58.4004Z"/>
<path d="M256.368 75.1553C256.368 76.2217 256.758 77.0625 257.537 77.6777C258.316 78.293 259.239 78.6006 260.306 78.6006C261.604 78.6006 262.862 78.2998 264.079 77.6982C266.13 76.7002 267.155 75.0664 267.155 72.7969L267.155 69.8232C266.704 70.1104 266.123 70.3496 265.412 70.541C264.701 70.7324 264.004 70.8691 263.32 70.9512L261.085 71.2383C259.745 71.416 258.74 71.6963 258.07 72.0791C256.936 72.7217 256.368 73.7471 256.368 75.1553ZM265.31 67.6904C266.157 67.5811 266.725 67.2256 267.012 66.624C267.176 66.2959 267.258 65.8242 267.258 65.209C267.258 63.9512 266.81 63.0386 265.915 62.4712C265.019 61.9038 263.737 61.6201 262.069 61.6201C260.142 61.6201 258.774 62.1396 257.968 63.1787C257.517 63.7529 257.223 64.6074 257.086 65.7422L253.641 65.7422C253.709 63.0352 254.587 61.1519 256.276 60.0923C257.964 59.0327 259.923 58.5029 262.151 58.5029C264.735 58.5029 266.834 58.9951 268.447 59.9795C270.047 60.9639 270.847 62.4951 270.847 64.5732L270.847 77.2266C270.847 77.6094 270.925 77.917 271.083 78.1494C271.24 78.3818 271.571 78.498 272.077 78.498C272.241 78.498 272.426 78.4878 272.631 78.4673C272.836 78.4468 273.055 78.416 273.287 78.375L273.287 81.1025C272.713 81.2666 272.275 81.3691 271.975 81.4102C271.674 81.4512 271.264 81.4717 270.744 81.4717C269.473 81.4717 268.55 81.0205 267.976 80.1182C267.675 79.6396 267.463 78.9629 267.34 78.0879C266.588 79.0723 265.508 79.9268 264.1 80.6514C262.691 81.376 261.14 81.7383 259.444 81.7383C257.407 81.7383 255.743 81.1196 254.451 79.8823C253.159 78.645 252.513 77.0967 252.513 75.2373C252.513 73.2002 253.148 71.6211 254.42 70.5C255.691 69.3789 257.359 68.6885 259.424 68.4287L265.31 67.6904Z"/>
<path d="M279.234 70.2744C279.234 72.626 279.733 74.5947 280.731 76.1807C281.729 77.7666 283.329 78.5596 285.53 78.5596C287.239 78.5596 288.644 77.8247 289.745 76.355C290.845 74.8853 291.396 72.7764 291.396 70.0283C291.396 67.2529 290.828 65.1987 289.693 63.8657C288.559 62.5327 287.157 61.8662 285.489 61.8662C283.63 61.8662 282.123 62.5771 280.967 63.999C279.812 65.4209 279.234 67.5127 279.234 70.2744ZM284.792 58.6465C286.474 58.6465 287.882 59.002 289.017 59.7129C289.673 60.123 290.418 60.8408 291.252 61.8662L291.252 50.7715L294.8 50.7715L294.8 81L291.478 81L291.478 77.9443C290.616 79.2979 289.598 80.2754 288.422 80.877C287.246 81.4785 285.899 81.7793 284.382 81.7793C281.935 81.7793 279.815 80.7505 278.024 78.6929C276.233 76.6353 275.338 73.8975 275.338 70.4795C275.338 67.2803 276.155 64.5083 277.789 62.1636C279.422 59.8188 281.757 58.6465 284.792 58.6465Z"/>
<path d="M308.971 78.6211C311.418 78.6211 313.096 77.6948 314.005 75.8423C314.915 73.9897 315.369 71.9287 315.369 69.6592C315.369 67.6084 315.041 65.9404 314.385 64.6553C313.346 62.6318 311.555 61.6201 309.012 61.6201C306.756 61.6201 305.115 62.4814 304.09 64.2041C303.064 65.9268 302.552 68.0049 302.552 70.4385C302.552 72.7764 303.064 74.7246 304.09 76.2832C305.115 77.8418 306.742 78.6211 308.971 78.6211ZM309.114 58.4004C311.944 58.4004 314.337 59.3437 316.292 61.2305C318.247 63.1172 319.225 65.8926 319.225 69.5566C319.225 73.0977 318.363 76.0234 316.641 78.334C314.918 80.6445 312.245 81.7998 308.622 81.7998C305.601 81.7998 303.201 80.7778 301.424 78.7339C299.646 76.6899 298.758 73.9453 298.758 70.5C298.758 66.8086 299.694 63.8691 301.567 61.6816C303.44 59.4941 305.956 58.4004 309.114 58.4004Z"/>
<path d="M336.697 50.874L340.819 50.874L340.819 81L336.697 81L336.697 50.874Z"/>
<path d="M347.054 50.874L350.745 50.874L350.745 81L347.054 81L347.054 50.874Z"/>
<path d="M356.282 50.7715L359.974 50.7715L359.974 62.0098C360.849 60.9023 361.635 60.123 362.332 59.6719C363.521 58.8926 365.005 58.5029 366.782 58.5029C369.968 58.5029 372.128 59.6172 373.263 61.8457C373.878 63.0625 374.186 64.751 374.186 66.9111L374.186 81L370.392 81L370.392 67.1572C370.392 65.5439 370.187 64.3613 369.776 63.6094C369.106 62.4062 367.849 61.8047 366.003 61.8047C364.472 61.8047 363.084 62.3311 361.84 63.3838C360.596 64.4365 359.974 66.4258 359.974 69.3516L359.974 81L356.282 81L356.282 50.7715Z"/>
<path d="M382.471 75.1553C382.471 76.2217 382.86 77.0625 383.64 77.6777C384.419 78.293 385.342 78.6006 386.408 78.6006C387.707 78.6006 388.965 78.2998 390.182 77.6982C392.232 76.7002 393.258 75.0664 393.258 72.7969L393.258 69.8232C392.807 70.1104 392.226 70.3496 391.515 70.541C390.804 70.7324 390.106 70.8691 389.423 70.9512L387.188 71.2383C385.848 71.416 384.843 71.6963 384.173 72.0791C383.038 72.7217 382.471 73.7471 382.471 75.1553ZM391.412 67.6904C392.26 67.5811 392.827 67.2256 393.114 66.624C393.278 66.2959 393.36 65.8242 393.36 65.209C393.36 63.9512 392.913 63.0386 392.017 62.4712C391.122 61.9038 389.84 61.6201 388.172 61.6201C386.244 61.6201 384.877 62.1396 384.07 63.1787C383.619 63.7529 383.325 64.6074 383.188 65.7422L379.743 65.7422C379.812 63.0352 380.69 61.1519 382.378 60.0923C384.067 59.0327 386.025 58.5029 388.254 58.5029C390.838 58.5029 392.937 58.9951 394.55 59.9795C396.149 60.9639 396.949 62.4951 396.949 64.5732L396.949 77.2266C396.949 77.6094 397.028 77.917 397.185 78.1494C397.342 78.3818 397.674 78.498 398.18 78.498C398.344 78.498 398.528 78.4878 398.733 78.4673C398.938 78.4468 399.157 78.416 399.39 78.375L399.39 81.1025C398.815 81.2666 398.378 81.3691 398.077 81.4102C397.776 81.4512 397.366 81.4717 396.847 81.4717C395.575 81.4717 394.652 81.0205 394.078 80.1182C393.777 79.6396 393.565 78.9629 393.442 78.0879C392.69 79.0723 391.61 79.9268 390.202 80.6514C388.794 81.376 387.242 81.7383 385.547 81.7383C383.51 81.7383 381.845 81.1196 380.553 79.8823C379.261 78.645 378.615 77.0967 378.615 75.2373C378.615 73.2002 379.251 71.6211 380.522 70.5C381.794 69.3789 383.462 68.6885 385.526 68.4287L391.412 67.6904Z"/>
</g>
<g fill="#ffffff" opacity="1" stroke="none" vectornator:layerName="text">
<path d="M171.237 92.0889L171.237 93.627L166.886 93.627L166.886 105L165.111 105L165.111 93.627L160.76 93.627L160.76 92.0889L171.237 92.0889Z"/>
<path d="M171.966 95.6309L173.575 95.6309L173.575 105L171.966 105L171.966 95.6309ZM171.966 92.0889L173.575 92.0889L173.575 93.8818L171.966 93.8818L171.966 92.0889Z"/>
<path d="M175.965 95.5869L177.468 95.5869L177.468 96.9229C177.914 96.3721 178.385 95.9766 178.883 95.7363C179.381 95.4961 179.935 95.376 180.545 95.376C181.88 95.376 182.783 95.8418 183.252 96.7734C183.509 97.2832 183.638 98.0127 183.638 98.9619L183.638 105L182.03 105L182.03 99.0674C182.03 98.4932 181.945 98.0303 181.775 97.6787C181.494 97.0928 180.984 96.7998 180.246 96.7998C179.871 96.7998 179.563 96.8379 179.323 96.9141C178.889 97.043 178.508 97.3008 178.18 97.6875C177.917 97.998 177.745 98.3188 177.666 98.6499C177.587 98.981 177.547 99.4541 177.547 100.069L177.547 105L175.965 105L175.965 95.5869Z"/>
<path d="M185.976 92.0449L187.558 92.0449L187.558 96.8613C187.933 96.3867 188.27 96.0527 188.569 95.8594C189.079 95.5254 189.714 95.3584 190.476 95.3584C191.841 95.3584 192.767 95.8359 193.254 96.791C193.517 97.3125 193.649 98.0361 193.649 98.9619L193.649 105L192.023 105L192.023 99.0674C192.023 98.376 191.935 97.8691 191.759 97.5469C191.472 97.0312 190.933 96.7734 190.142 96.7734C189.486 96.7734 188.891 96.999 188.358 97.4502C187.825 97.9014 187.558 98.7539 187.558 100.008L187.558 105L185.976 105L185.976 92.0449Z"/>
<path d="M197.2 102.495C197.2 102.952 197.367 103.312 197.701 103.576C198.035 103.84 198.43 103.972 198.887 103.972C199.444 103.972 199.983 103.843 200.504 103.585C201.383 103.157 201.823 102.457 201.823 101.484L201.823 100.21C201.629 100.333 201.38 100.436 201.076 100.518C200.771 100.6 200.472 100.658 200.179 100.693L199.221 100.816C198.647 100.893 198.216 101.013 197.929 101.177C197.443 101.452 197.2 101.892 197.2 102.495ZM201.032 99.2959C201.395 99.249 201.638 99.0967 201.761 98.8389C201.832 98.6982 201.867 98.4961 201.867 98.2324C201.867 97.6934 201.675 97.3022 201.291 97.0591C200.907 96.8159 200.358 96.6943 199.643 96.6943C198.817 96.6943 198.231 96.917 197.885 97.3623C197.692 97.6084 197.566 97.9746 197.507 98.4609L196.031 98.4609C196.06 97.3008 196.437 96.4937 197.16 96.0396C197.884 95.5854 198.723 95.3584 199.678 95.3584C200.786 95.3584 201.685 95.5693 202.377 95.9912C203.062 96.4131 203.405 97.0693 203.405 97.96L203.405 103.383C203.405 103.547 203.439 103.679 203.506 103.778C203.573 103.878 203.715 103.928 203.932 103.928C204.003 103.928 204.082 103.923 204.17 103.915C204.257 103.906 204.351 103.893 204.451 103.875L204.451 105.044C204.205 105.114 204.017 105.158 203.888 105.176C203.759 105.193 203.584 105.202 203.361 105.202C202.816 105.202 202.421 105.009 202.174 104.622C202.046 104.417 201.955 104.127 201.902 103.752C201.58 104.174 201.117 104.54 200.513 104.851C199.91 105.161 199.245 105.316 198.518 105.316C197.645 105.316 196.932 105.051 196.378 104.521C195.824 103.991 195.547 103.327 195.547 102.53C195.547 101.657 195.82 100.98 196.365 100.5C196.91 100.02 197.625 99.7236 198.509 99.6123L201.032 99.2959Z"/>
<path d="M206.042 95.5869L207.545 95.5869L207.545 97.2129C207.668 96.8965 207.969 96.5112 208.45 96.0571C208.93 95.603 209.484 95.376 210.111 95.376C210.14 95.376 210.19 95.3789 210.26 95.3848C210.331 95.3906 210.451 95.4023 210.621 95.4199L210.621 97.0898C210.527 97.0723 210.441 97.0605 210.361 97.0547C210.282 97.0488 210.196 97.0459 210.102 97.0459C209.305 97.0459 208.693 97.3022 208.265 97.8149C207.837 98.3276 207.624 98.918 207.624 99.5859L207.624 105L206.042 105L206.042 95.5869Z"/>
<path d="M215.912 95.376C216.58 95.376 217.227 95.5327 217.854 95.8462C218.481 96.1597 218.959 96.5654 219.287 97.0635C219.603 97.5381 219.814 98.0918 219.92 98.7246C220.013 99.1582 220.06 99.8496 220.06 100.799L213.161 100.799C213.19 101.754 213.416 102.52 213.837 103.097C214.259 103.674 214.913 103.963 215.797 103.963C216.624 103.963 217.283 103.69 217.775 103.146C218.056 102.829 218.255 102.463 218.373 102.047L219.928 102.047C219.887 102.393 219.751 102.778 219.52 103.203C219.288 103.627 219.029 103.975 218.742 104.244C218.261 104.713 217.667 105.029 216.958 105.193C216.577 105.287 216.146 105.334 215.666 105.334C214.494 105.334 213.501 104.908 212.686 104.055C211.872 103.203 211.464 102.009 211.464 100.474C211.464 98.9619 211.875 97.7344 212.695 96.791C213.515 95.8477 214.587 95.376 215.912 95.376ZM218.434 99.542C218.37 98.8564 218.22 98.3086 217.986 97.8984C217.552 97.1367 216.829 96.7559 215.815 96.7559C215.088 96.7559 214.479 97.0181 213.987 97.5425C213.495 98.0669 213.234 98.7334 213.205 99.542L218.434 99.542ZM217.74 91.7988L215.393 94.3389L214.18 94.3389L215.789 91.7988L217.74 91.7988Z"/>
</g>
</g>
</g>
</svg>
